<svg xmlns="http://www.w3.org/2000/svg" width="30.837" height="30" viewBox="0 0 30.837 30"><path d="M17.071,1.4a15.4,15.4,0,0,0-4.9,29.988c.754.094,1.037-.377,1.037-.754v-2.64c-4.244.943-5.187-2.075-5.187-2.075a3.894,3.894,0,0,0-1.7-2.263c-1.415-.943.094-.943.094-.943a3.286,3.286,0,0,1,2.358,1.6,3.264,3.264,0,0,0,4.432,1.32,3.284,3.284,0,0,1,.943-2.075c-3.395-.377-6.978-1.7-6.978-7.638a5.846,5.846,0,0,1,1.6-4.149,5.362,5.362,0,0,1,.189-4.055s1.32-.377,4.244,1.6a13.178,13.178,0,0,1,3.866-.472,17.357,17.357,0,0,1,3.866.472c2.923-1.98,4.244-1.6,4.244-1.6a5.9,5.9,0,0,1,.189,4.055,6.1,6.1,0,0,1,1.6,4.149c0,5.941-3.583,7.167-6.978,7.544A3.6,3.6,0,0,1,21.032,26.3v4.244c0,.377.283.849,1.037.754A15.388,15.388,0,0,0,32.537,16.677,15.5,15.5,0,0,0,17.071,1.4Z" transform="translate(-1.7 -1.4)" fill="#ececec" fill-rule="evenodd"/></svg>