<svg xmlns="http://www.w3.org/2000/svg" width="30.837" height="30"><path d="M15.371 0a15.4 15.4 0 00-4.9 29.988c.754.094 1.037-.377 1.037-.754v-2.64c-4.244.943-5.187-2.075-5.187-2.075a3.894 3.894 0 00-1.7-2.263c-1.415-.943.094-.943.094-.943a3.286 3.286 0 012.358 1.6 3.264 3.264 0 004.432 1.32 3.284 3.284 0 01.943-2.075c-3.395-.377-6.978-1.7-6.978-7.638a5.846 5.846 0 011.6-4.149 5.362 5.362 0 01.189-4.055s1.32-.377 4.244 1.6a13.178 13.178 0 013.866-.472 17.357 17.357 0 013.866.472c2.923-1.98 4.244-1.6 4.244-1.6a5.9 5.9 0 01.189 4.055 6.1 6.1 0 011.6 4.149c0 5.941-3.583 7.167-6.978 7.544a3.6 3.6 0 011.042 2.836v4.244c0 .377.283.849 1.037.754a15.388 15.388 0 0010.468-14.621A15.5 15.5 0 0015.371 0z" fill="#ececec" fill-rule="evenodd"/></svg>