<svg xmlns="http://www.w3.org/2000/svg" width="30" height="30"><path d="M30 4.737v20.789A6.651 6.651 0 0125.789 30H4.211l-1.492-.761C1.092 28.405.576 26.813 0 25.263V4.737a8.219 8.219 0 011.368-2.6A21.974 21.974 0 015 0h20c1.405.463 2.895.832 3.747 2.184A25.768 25.768 0 0130 4.737zm-13.734 6.655c-1.124 0-2.208.032-3.289 0-.926-.037-1.192.371-1.182 1.258.037 3.374.016 6.75.016 10.124s0 3.339 3.421 3.35c1.108 0 1.434-.368 1.405-1.439-.061-2.276-.045-4.558.018-6.842.047-1.618.713-2.408 1.932-2.529 1.726-.174 2.5.492 2.611 2.455.092 1.616.034 3.242.037 4.863 0 3.637 0 3.637 3.658 3.463.045 0 .105.016.129 0 .329-.3.929-.6.932-.905 0-3.284.063-6.579-.184-9.85-.205-2.737-2.145-4.258-4.866-4.384a5.413 5.413 0 00-4.461 1.882zm-6.958 0c-1.118 0-2.105.068-3.1-.016-1.276-.108-1.771.292-1.729 1.666.1 3.189 0 6.384.039 9.576.063 4.211-.732 3.374 3.655 3.487.834.024 1.168-.263 1.145-1.124-.05-1.924-.013-3.847-.013-5.774zm.476-4.287a3.02 3.02 0 00-2.737-2.981A2.96 2.96 0 004.121 6.9a2.939 2.939 0 002.653 2.892 2.969 2.969 0 003.01-2.687z" fill="#ececec"/></svg>