<svg xmlns="http://www.w3.org/2000/svg" width="24.343" height="30"><path d="M14.12 30c0-1.431-.06-2.622 0-3.8.07-1-.34-1.341-1.331-1.321-2.822.05-5.654.05-8.476 0a4.093 4.093 0 01-4.302-4.395c0-.771.25-1.141 1.071-1.141h22.235c.75 0 1 .31 1 1a4 4 0 01-3.862 4.45 3.052 3.052 0 00-2.171 1.071c-1.121 1.2-2.292 2.372-3.442 3.552a7.685 7.685 0 01-.72.58zm-1.921-11.717H1.422c-1 0-1.481-.31-1.4-1.381S.011 14.989.011 14.05c0-.741.3-1.061 1.051-1.061h22.225c.73 0 1.081.28 1 1s0 1.761 0 2.642c0 1.591 0 1.611-1.571 1.621zm-.07-6.385H1.462C.121 11.884.011 11.817.011 10.447V7.695a.959.959 0 011.1-1.071h21.655c1.511 0 1.551 0 1.551 1.531v2.422c.07 1-.32 1.361-1.331 1.351H12.111zm.091-6.404H1.543C.182 5.48-.058 5.203.082 3.843A4.113 4.113 0 014.355.06a511.59 511.59 0 0115.67 0 4 4 0 014.313 4.183c0 1-.36 1.271-1.291 1.261-3.635-.03-7.224-.01-10.827-.01z" fill="#ececec"/></svg>