<svg xmlns="http://www.w3.org/2000/svg" width="24.343" height="30" viewBox="0 0 24.343 30"><path d="M14.109,30.007c0-1.431-.06-2.622,0-3.8.07-1-.34-1.341-1.331-1.321-2.822.05-5.654.05-8.476,0A4.093,4.093,0,0,1,0,20.491c0-.771.25-1.141,1.071-1.141H23.306c.75,0,1,.31,1,1A4,4,0,0,1,20.444,24.8a3.052,3.052,0,0,0-2.171,1.071c-1.121,1.2-2.292,2.372-3.442,3.552a7.685,7.685,0,0,1-.72.58Z" transform="translate(0.011 -0.007)" fill="#ececec"/><path d="M12.188,18.294H1.411c-1,0-1.481-.31-1.4-1.381S0,15,0,14.061C0,13.32.3,13,1.051,13H23.276c.73,0,1.081.28,1,1s0,1.761,0,2.642c0,1.591,0,1.611-1.571,1.621Z" transform="translate(0.011 -0.011)" fill="#ececec"/><path d="M12.118,11.914H1.451C.11,11.9,0,11.833,0,10.463V7.711A.959.959,0,0,1,1.1,6.64H22.755c1.511,0,1.551,0,1.551,1.531v2.422c.07,1-.32,1.361-1.331,1.351H12.1Z" transform="translate(0.011 -0.016)" fill="#ececec"/><path d="M12.208,5.514H1.531C.17,5.5-.07,5.223.07,3.863A4.113,4.113,0,0,1,4.343.08C9.556,0,14.77,0,20.013.08a4,4,0,0,1,4.313,4.183c0,1-.36,1.271-1.291,1.261C19.4,5.494,15.811,5.514,12.208,5.514Z" transform="translate(0.012 -0.02)" fill="#ececec"/></svg>